<?xml version="1.0" encoding="ISO-8859-1" standalone="no"?>
<!DOCTYPE svg PUBLIC "-//W3C//DTD SVG 1.1//EN"
    "http://www.w3.org/Graphics/SVG/1.1/DTD/svg11.dtd">
<svg viewBox="-2 -40 124 140" xmlns="http://www.w3.org/2000/svg">
    <line x1="0" x2="120" y1="0" y2="0"></line>
    <line x1="0" x2="120" y1="60" y2="60"></line>
    <path stroke="white" stroke-width="10" fill="none" d="M0,60 L1.2,60.0 2.4,60.0 3.6,59.9 4.8,59.8 6.0,59.7 7.2,59.6 8.4,59.4 9.6,59.2 10.8,59.0 12.0,58.8 13.2,58.5 14.4,58.3 15.6,58.0 16.8,57.6 18.0,57.3 19.2,56.9 20.4,56.5 21.6,56.1 22.8,55.7 24.0,55.2 25.2,54.7 26.4,54.2 27.6,53.7 28.8,53.1 30.0,52.5 31.2,51.9 32.4,51.3 33.6,50.6 34.8,49.9 36.0,49.2 37.2,48.5 38.4,47.7 39.6,46.9 40.8,46.1 42.0,45.3 43.2,44.4 44.4,43.6 45.6,42.7 46.8,41.7 48.0,40.8 49.2,39.8 50.4,38.8 51.6,37.8 52.8,36.8 54.0,35.7 55.2,34.6 56.4,33.5 57.6,32.4 58.8,31.2 60.0,30.0 61.2,28.8 62.4,27.6 63.6,26.5 64.8,25.4 66.0,24.3 67.2,23.2 68.4,22.2 69.6,21.2 70.8,20.2 72.0,19.2 73.2,18.3 74.4,17.3 75.6,16.4 76.8,15.6 78.0,14.7 79.2,13.9 80.4,13.1 81.6,12.3 82.8,11.5 84.0,10.8 85.2,10.1 86.4,9.4 87.6,8.7 88.8,8.1 90.0,7.5 91.2,6.9 92.4,6.3 93.6,5.8 94.8,5.3 96.0,4.8 97.2,4.3 98.4,3.9 99.6,3.5 100.8,3.1 102.0,2.7 103.2,2.4 104.4,2.0 105.6,1.7 106.8,1.5 108.0,1.2 109.2,1.0 110.4,0.8 111.6,0.6 112.8,0.4 114.0,0.3 115.2,0.2 116.4,0.1 117.6,0.0 118.8,0.0 120.0,0">
    </path>
</svg>
