<?xml version="1.0" encoding="ISO-8859-1" standalone="no"?>
<!DOCTYPE svg PUBLIC "-//W3C//DTD SVG 1.1//EN"
    "http://www.w3.org/Graphics/SVG/1.1/DTD/svg11.dtd">
<svg viewBox="-2 -40 124 140" xmlns="http://www.w3.org/2000/svg">
    <line x1="0" x2="120" y1="0" y2="0"></line>
    <line x1="0" x2="120" y1="60" y2="60"></line>
    <path stroke="white" stroke-width="10" fill="none" d="M0,60 L1.2,60.0 2.4,60.0 3.6,60.0 4.8,60.0 6.0,60.0 7.2,60.0 8.4,60.0 9.6,60.0 10.8,60.0 12.0,60.0 13.2,59.9 14.4,59.9 15.6,59.9 16.8,59.8 18.0,59.8 19.2,59.7 20.4,59.6 21.6,59.5 22.8,59.4 24.0,59.2 25.2,59.1 26.4,58.9 27.6,58.7 28.8,58.4 30.0,58.1 31.2,57.8 32.4,57.4 33.6,57.0 34.8,56.6 36.0,56.1 37.2,55.6 38.4,55.0 39.6,54.3 40.8,53.6 42.0,52.8 43.2,51.9 44.4,51.0 45.6,50.0 46.8,48.9 48.0,47.7 49.2,46.4 50.4,45.1 51.6,43.6 52.8,42.0 54.0,40.3 55.2,38.5 56.4,36.6 57.6,34.5 58.8,32.3 60.0,30.0 61.2,27.7 62.4,25.5 63.6,23.4 64.8,21.5 66.0,19.7 67.2,18.0 68.4,16.4 69.6,14.9 70.8,13.6 72.0,12.3 73.2,11.1 74.4,10.0 75.6,9.0 76.8,8.1 78.0,7.2 79.2,6.4 80.4,5.7 81.6,5.0 82.8,4.4 84.0,3.9 85.2,3.4 86.4,3.0 87.6,2.6 88.8,2.2 90.0,1.9 91.2,1.6 92.4,1.3 93.6,1.1 94.8,0.9 96.0,0.8 97.2,0.6 98.4,0.5 99.6,0.4 100.8,0.3 102.0,0.2 103.2,0.2 104.4,0.1 105.6,0.1 106.8,0.1 108.0,0.0 109.2,0.0 110.4,0.0 111.6,0.0 112.8,0.0 114.0,0.0 115.2,0.0 116.4,0.0 117.6,0.0 118.8,0.0 120.0,0"></path>
</svg>
