<?xml version="1.0" encoding="ISO-8859-1" standalone="no"?>
<!DOCTYPE svg PUBLIC "-//W3C//DTD SVG 1.1//EN"
    "http://www.w3.org/Graphics/SVG/1.1/DTD/svg11.dtd">
<svg viewBox="-2 -40 124 140" xmlns="http://www.w3.org/2000/svg">
    <line x1="0" x2="120" y1="0" y2="0"></line>
    <line x1="0" x2="120" y1="60" y2="60"></line>
    <path stroke="white" stroke-width="10" fill="none" d="M0,60 L1.2,60.0 2.4,60.0 3.6,60.0 4.8,60.0 6.0,60.0 7.2,60.0 8.4,60.0 9.6,60.0 10.8,60.0 12.0,60.0 13.2,60.0 14.4,60.0 15.6,60.0 16.8,60.0 18.0,60.0 19.2,60.0 20.4,59.9 21.6,59.9 22.8,59.9 24.0,59.9 25.2,59.9 26.4,59.9 27.6,59.8 28.8,59.8 30.0,59.8 31.2,59.7 32.4,59.7 33.6,59.6 34.8,59.6 36.0,59.5 37.2,59.4 38.4,59.4 39.6,59.3 40.8,59.2 42.0,59.1 43.2,59.0 44.4,58.9 45.6,58.7 46.8,58.6 48.0,58.5 49.2,58.3 50.4,58.1 51.6,57.9 52.8,57.8 54.0,57.5 55.2,57.3 56.4,57.1 57.6,56.8 58.8,56.5 60.0,56.3 61.2,55.9 62.4,55.6 63.6,55.3 64.8,54.9 66.0,54.5 67.2,54.1 68.4,53.7 69.6,53.2 70.8,52.7 72.0,52.2 73.2,51.7 74.4,51.1 75.6,50.5 76.8,49.9 78.0,49.3 79.2,48.6 80.4,47.9 81.6,47.2 82.8,46.4 84.0,45.6 85.2,44.8 86.4,43.9 87.6,43.0 88.8,42.0 90.0,41.0 91.2,40.0 92.4,38.9 93.6,37.8 94.8,36.6 96.0,35.4 97.2,34.2 98.4,32.9 99.6,31.5 100.8,30.1 102.0,28.7 103.2,27.2 104.4,25.6 105.6,24.0 106.8,22.4 108.0,20.6 109.2,18.9 110.4,17.0 111.6,15.1 112.8,13.2 114.0,11.1 115.2,9.0 116.4,6.9 117.6,4.7 118.8,2.4 120.0,0">
    </path>
</svg>
