<?xml version="1.0" encoding="ISO-8859-1" standalone="no"?>
<!DOCTYPE svg PUBLIC "-//W3C//DTD SVG 1.1//EN"
    "http://www.w3.org/Graphics/SVG/1.1/DTD/svg11.dtd">
<svg viewBox="-2 -40 124 140" xmlns="http://www.w3.org/2000/svg">
    <line x1="0" x2="120" y1="0" y2="0"></line>
    <line x1="0" x2="120" y1="60" y2="60"></line>
    <path stroke="white" stroke-width="10" fill="none" d="M0,60 L1.2,60.0 2.4,60.0 3.6,60.0 4.8,60.0 6.0,60.0 7.2,60.0 8.4,60.0 9.6,60.0 10.8,60.0 12.0,60.0 13.2,60.0 14.4,60.0 15.6,60.0 16.8,60.0 18.0,60.0 19.2,60.0 20.4,60.0 21.6,60.0 22.8,60.0 24.0,60.0 25.2,60.0 26.4,60.0 27.6,60.0 28.8,60.0 30.0,59.9 31.2,59.9 32.4,59.9 33.6,59.9 34.8,59.9 36.0,59.9 37.2,59.8 38.4,59.8 39.6,59.8 40.8,59.7 42.0,59.7 43.2,59.6 44.4,59.6 45.6,59.5 46.8,59.5 48.0,59.4 49.2,59.3 50.4,59.2 51.6,59.1 52.8,59.0 54.0,58.9 55.2,58.8 56.4,58.6 57.6,58.5 58.8,58.3 60.0,58.1 61.2,57.9 62.4,57.7 63.6,57.5 64.8,57.2 66.0,57.0 67.2,56.7 68.4,56.4 69.6,56.1 70.8,55.7 72.0,55.3 73.2,54.9 74.4,54.5 75.6,54.0 76.8,53.6 78.0,53.0 79.2,52.5 80.4,51.9 81.6,51.3 82.8,50.6 84.0,49.9 85.2,49.2 86.4,48.4 87.6,47.6 88.8,46.7 90.0,45.8 91.2,44.8 92.4,43.8 93.6,42.7 94.8,41.5 96.0,40.3 97.2,39.1 98.4,37.8 99.6,36.4 100.8,34.9 102.0,33.4 103.2,31.8 104.4,30.1 105.6,28.3 106.8,26.5 108.0,24.6 109.2,22.6 110.4,20.5 111.6,18.3 112.8,16.0 114.0,13.6 115.2,11.1 116.4,8.5 117.6,5.8 118.8,2.9 120.0,0">
    </path>
</svg>
