<?xml version="1.0" encoding="ISO-8859-1" standalone="no"?>
<!DOCTYPE svg PUBLIC "-//W3C//DTD SVG 1.1//EN"
    "http://www.w3.org/Graphics/SVG/1.1/DTD/svg11.dtd">
<svg viewBox="-2 -40 124 140" xmlns="http://www.w3.org/2000/svg">
    <line x1="0" x2="120" y1="0" y2="0"></line>
    <line x1="0" x2="120" y1="60" y2="60"></line>
    <path stroke="white" stroke-width="10" fill="none" d="M0,60 L1.2,60.0 2.4,60.0 3.6,59.9 4.8,59.9 6.0,59.9 7.2,59.8 8.4,59.7 9.6,59.6 10.8,59.5 12.0,59.4 13.2,59.3 14.4,59.1 15.6,59.0 16.8,58.8 18.0,58.7 19.2,58.5 20.4,58.3 21.6,58.1 22.8,57.8 24.0,57.6 25.2,57.4 26.4,57.1 27.6,56.8 28.8,56.5 30.0,56.3 31.2,55.9 32.4,55.6 33.6,55.3 34.8,55.0 36.0,54.6 37.2,54.2 38.4,53.9 39.6,53.5 40.8,53.1 42.0,52.7 43.2,52.2 44.4,51.8 45.6,51.3 46.8,50.9 48.0,50.4 49.2,49.9 50.4,49.4 51.6,48.9 52.8,48.4 54.0,47.9 55.2,47.3 56.4,46.7 57.6,46.2 58.8,45.6 60.0,45.0 61.2,44.4 62.4,43.8 63.6,43.1 64.8,42.5 66.0,41.8 67.2,41.2 68.4,40.5 69.6,39.8 70.8,39.1 72.0,38.4 73.2,37.7 74.4,36.9 75.6,36.2 76.8,35.4 78.0,34.7 79.2,33.9 80.4,33.1 81.6,32.3 82.8,31.4 84.0,30.6 85.2,29.8 86.4,28.9 87.6,28.0 88.8,27.1 90.0,26.3 91.2,25.3 92.4,24.4 93.6,23.5 94.8,22.6 96.0,21.6 97.2,20.6 98.4,19.7 99.6,18.7 100.8,17.7 102.0,16.7 103.2,15.6 104.4,14.6 105.6,13.5 106.8,12.5 108.0,11.4 109.2,10.3 110.4,9.2 111.6,8.1 112.8,7.0 114.0,5.9 115.2,4.7 116.4,3.5 117.6,2.4 118.8,1.2 120.0,0">
    </path>
</svg>
