<?xml version="1.0" encoding="ISO-8859-1" standalone="no"?>
<!DOCTYPE svg PUBLIC "-//W3C//DTD SVG 1.1//EN"
    "http://www.w3.org/Graphics/SVG/1.1/DTD/svg11.dtd">
<svg viewBox="-2 -40 124 140" xmlns="http://www.w3.org/2000/svg">
    <line x1="0" x2="120" y1="0" y2="0"></line>
    <line x1="0" x2="120" y1="60" y2="60"></line>
    <path stroke="white" stroke-width="10" fill="none" d="M0,60 L1.2,60.0 2.4,60.0 3.6,60.0 4.8,60.0 6.0,60.0 7.2,60.0 8.4,60.0 9.6,60.0 10.8,60.0 12.0,59.9 13.2,59.9 14.4,59.9 15.6,59.9 16.8,59.8 18.0,59.8 19.2,59.8 20.4,59.7 21.6,59.7 22.8,59.6 24.0,59.5 25.2,59.4 26.4,59.4 27.6,59.3 28.8,59.2 30.0,59.1 31.2,58.9 32.4,58.8 33.6,58.7 34.8,58.5 36.0,58.4 37.2,58.2 38.4,58.0 39.6,57.8 40.8,57.6 42.0,57.4 43.2,57.2 44.4,57.0 45.6,56.7 46.8,56.4 48.0,56.2 49.2,55.9 50.4,55.6 51.6,55.2 52.8,54.9 54.0,54.5 55.2,54.2 56.4,53.8 57.6,53.4 58.8,52.9 60.0,52.5 61.2,52.0 62.4,51.6 63.6,51.1 64.8,50.6 66.0,50.0 67.2,49.5 68.4,48.9 69.6,48.3 70.8,47.7 72.0,47.0 73.2,46.4 74.4,45.7 75.6,45.0 76.8,44.3 78.0,43.5 79.2,42.8 80.4,42.0 81.6,41.1 82.8,40.3 84.0,39.4 85.2,38.5 86.4,37.6 87.6,36.7 88.8,35.7 90.0,34.7 91.2,33.7 92.4,32.6 93.6,31.5 94.8,30.4 96.0,29.3 97.2,28.1 98.4,26.9 99.6,25.7 100.8,24.4 102.0,23.2 103.2,21.8 104.4,20.5 105.6,19.1 106.8,17.7 108.0,16.3 109.2,14.8 110.4,13.3 111.6,11.7 112.8,10.2 114.0,8.6 115.2,6.9 116.4,5.2 117.6,3.5 118.8,1.8 120.0,0">
    </path>
</svg>
