<?xml version="1.0" encoding="ISO-8859-1" standalone="no"?>
<!DOCTYPE svg PUBLIC "-//W3C//DTD SVG 1.1//EN"
    "http://www.w3.org/Graphics/SVG/1.1/DTD/svg11.dtd">
<svg viewBox="-2 -40 124 140" xmlns="http://www.w3.org/2000/svg">
    <line x1="0" x2="120" y1="0" y2="0"></line>
    <line x1="0" x2="120" y1="60" y2="60"></line>
    <path stroke="white" stroke-width="10" fill="none" d="M0,60 L1.2,60.0 2.4,60.0 3.6,60.0 4.8,60.0 6.0,60.0 7.2,60.0 8.4,60.0 9.6,60.0 10.8,60.0 12.0,60.0 13.2,60.0 14.4,60.0 15.6,60.0 16.8,59.9 18.0,59.9 19.2,59.9 20.4,59.9 21.6,59.8 22.8,59.8 24.0,59.7 25.2,59.6 26.4,59.5 27.6,59.4 28.8,59.2 30.0,59.1 31.2,58.9 32.4,58.6 33.6,58.3 34.8,58.0 36.0,57.7 37.2,57.3 38.4,56.8 39.6,56.2 40.8,55.6 42.0,55.0 43.2,54.2 44.4,53.3 45.6,52.4 46.8,51.3 48.0,50.2 49.2,48.9 50.4,47.5 51.6,45.9 52.8,44.2 54.0,42.3 55.2,40.2 56.4,38.0 57.6,35.5 58.8,32.9 60.0,30.0 61.2,27.1 62.4,24.5 63.6,22.0 64.8,19.8 66.0,17.7 67.2,15.8 68.4,14.1 69.6,12.5 70.8,11.1 72.0,9.8 73.2,8.7 74.4,7.6 75.6,6.7 76.8,5.8 78.0,5.0 79.2,4.4 80.4,3.8 81.6,3.2 82.8,2.7 84.0,2.3 85.2,2.0 86.4,1.7 87.6,1.4 88.8,1.1 90.0,0.9 91.2,0.8 92.4,0.6 93.6,0.5 94.8,0.4 96.0,0.3 97.2,0.2 98.4,0.2 99.6,0.1 100.8,0.1 102.0,0.1 103.2,0.1 104.4,0.0 105.6,0.0 106.8,0.0 108.0,0.0 109.2,0.0 110.4,0.0 111.6,0.0 112.8,0.0 114.0,0.0 115.2,0.0 116.4,0.0 117.6,0.0 118.8,0.0 120.0,0"></path>
</svg>
