<?xml version="1.0" encoding="ISO-8859-1" standalone="no"?>
<!DOCTYPE svg PUBLIC "-//W3C//DTD SVG 1.1//EN"
    "http://www.w3.org/Graphics/SVG/1.1/DTD/svg11.dtd">
<svg viewBox="-2 -40 124 140" xmlns="http://www.w3.org/2000/svg">
    <line x1="0" x2="120" y1="0" y2="0"></line>
    <line x1="0" x2="120" y1="60" y2="60"></line>
    <path stroke="white" stroke-width="10" fill="none" d="M0,60 L1.2,60.0 2.4,60.0 3.6,60.0 4.8,60.0 6.0,60.0 7.2,59.9 8.4,59.9 9.6,59.9 10.8,59.8 12.0,59.8 13.2,59.7 14.4,59.6 15.6,59.5 16.8,59.3 18.0,59.2 19.2,59.0 20.4,58.8 21.6,58.6 22.8,58.4 24.0,58.1 25.2,57.8 26.4,57.4 27.6,57.1 28.8,56.7 30.0,56.3 31.2,55.8 32.4,55.3 33.6,54.7 34.8,54.1 36.0,53.5 37.2,52.9 38.4,52.1 39.6,51.4 40.8,50.6 42.0,49.7 43.2,48.8 44.4,47.8 45.6,46.8 46.8,45.8 48.0,44.6 49.2,43.5 50.4,42.2 51.6,40.9 52.8,39.6 54.0,38.1 55.2,36.6 56.4,35.1 57.6,33.5 58.8,31.8 60.0,30.0 61.2,28.2 62.4,26.5 63.6,24.9 64.8,23.4 66.0,21.9 67.2,20.4 68.4,19.1 69.6,17.8 70.8,16.5 72.0,15.4 73.2,14.2 74.4,13.2 75.6,12.2 76.8,11.2 78.0,10.3 79.2,9.4 80.4,8.6 81.6,7.9 82.8,7.1 84.0,6.5 85.2,5.9 86.4,5.3 87.6,4.7 88.8,4.2 90.0,3.8 91.2,3.3 92.4,2.9 93.6,2.6 94.8,2.2 96.0,1.9 97.2,1.6 98.4,1.4 99.6,1.2 100.8,1.0 102.0,0.8 103.2,0.7 104.4,0.5 105.6,0.4 106.8,0.3 108.0,0.2 109.2,0.2 110.4,0.1 111.6,0.1 112.8,0.1 114.0,0.0 115.2,0.0 116.4,0.0 117.6,0.0 118.8,0.0 120.0,0"></path>
</svg>
